<?xml version="1.0" encoding="UTF-8"?>
<svg id="Layer_2" data-name="Layer 2" xmlns="http://www.w3.org/2000/svg" viewBox="0 0 48 48">
  <g id="Icons">
    <g>
      <path d="M24.06,0C11.8,0,1.69,9.2,.24,21.07c1.96,4.21,7.66,10.24,23.82,2.18,16.89-8.43,18.82-5.57,23.7-3.06C45.93,8.74,36.02,0,24.06,0Z" style="fill: #517fa4;"/>
      <g>
        <path d="M48,24c0,13.25-10.75,24-24,24S0,37.25,0,24,10.75,0,24,0s24,10.74,24,24Z" style="fill: #517fa4;"/>
        <path d="M33.2,9H14.8c-3.2,0-5.8,2.6-5.8,5.8v18.41c0,3.2,2.6,5.8,5.8,5.8h18.4c3.2,0,5.8-2.6,5.8-5.8V14.8c0-3.2-2.6-5.8-5.8-5.8Zm1.66,3.46h.66v5.08l-5.07,.02-.02-5.08h4.42Zm-15.15,8.45c.96-1.33,2.52-2.2,4.28-2.2s3.32,.87,4.28,2.2c.62,.87,1,1.93,1,3.08,0,2.91-2.37,5.28-5.28,5.28s-5.28-2.37-5.28-5.28c0-1.15,.38-2.21,1-3.08Zm16.36,12.28c0,1.59-1.29,2.88-2.88,2.88H14.8c-1.59,0-2.88-1.29-2.88-2.88v-12.28h4.48c-.39,.95-.6,1.99-.6,3.08,0,4.52,3.68,8.2,8.2,8.2s8.2-3.68,8.2-8.2c0-1.09-.22-2.13-.61-3.08h4.48v12.28Z" style="fill: #fff;"/>
      </g>
    </g>
  </g>
</svg>