<?xml version="1.0" encoding="UTF-8"?>
<svg id="Layer_2" data-name="Layer 2" xmlns="http://www.w3.org/2000/svg" viewBox="0 0 48 48">
  <g id="Icons">
    <path d="M24.06,0C11.8,0,1.69,9.2,.25,21.07c1.96,4.21,7.66,10.24,23.82,2.18,16.89-8.43,18.82-5.57,23.7-3.06C45.93,8.74,36.02,0,24.06,0Z" style="fill: #0173b2;"/>
    <g>
      <path d="M48,24c0,13.26-10.75,24-24,24S0,37.26,0,24,10.75,0,24,0s24,10.75,24,24Z" style="fill: #0173b2;"/>
      <g>
        <rect x="9" y="19" width="7" height="20" style="fill: #fff;"/>
        <path d="M12.5,16c1.93,0,3.5-1.57,3.5-3.5s-1.57-3.5-3.5-3.5-3.5,1.57-3.5,3.5,1.57,3.5,3.5,3.5Z" style="fill: #fff;"/>
        <path d="M39,28.01c0-5.4-1.16-9.01-7.46-9.01-3.02,0-5.05,1.12-5.88,2.7h-.09v-2.7h-5.58v20h5.83v-9.91c0-2.61,.49-5.15,3.73-5.15s3.44,2.99,3.44,5.31v9.74h6v-10.99Z" style="fill: #fff;"/>
      </g>
    </g>
  </g>
</svg>