<?xml version="1.0" encoding="UTF-8"?>
<svg id="Layer_2" data-name="Layer 2" xmlns="http://www.w3.org/2000/svg" viewBox="0 0 945.25 431.88">
  <g id="Layer_1-2" data-name="Layer 1">
    <g>
      <path d="M102.57,125.87q-12.7-3.39-16.29-5.96c-2.57-1.61-4.15-4.57-4.15-7.56,0-6.34,6.34-10.91,15.28-10.91,4.17,0,9.13,.98,13.5,2.59q7.54,2.77,10.53,2.77c7.54,0,13.5-6.16,13.5-14.1,0-11.51-15.08-19.66-36.35-19.66-28.4,0-48.84,17.67-48.84,42.3,0,10.13,2.97,18.68,8.52,24.03,5.58,5.56,11.74,8.55,27.22,13.1,14.5,4.37,17.27,5.38,21.04,7.94,3.39,1.99,5.18,5.38,5.18,9.55,0,8.32-6.56,13.9-16.69,13.9-4.57,0-10.33-1.2-14.9-2.99q-14.48-5.56-18.25-5.56c-7.16,0-13.12,6.56-13.12,14.5,0,13.1,19.05,29.23,45.47,29.23,16.87,0,29.9-6.92,38.25-16.06,7.14-7.74,11.8-23.7,11.8-35.21,0-21.46-12.49-33.96-41.7-41.9Z" style="fill: #8fbddf;"/>
      <path d="M249.52,121.5c0-8.34-6.16-14.7-14.48-14.7-5.78,0-9.55,2.59-14.3,10.13-7.74-7.74-14.7-10.71-24.83-10.71-24.43,0-44.09,23.63-44.09,53.01,0,14.88,5.38,29.18,14.3,38.13,7.74,7.94,20.46,13.5,30.79,13.5,8.52,0,15.28-2.59,23.43-8.95l-.03,29.24s0-.07,.02-.11c4.83-9.61,13.69-22.14,13.91-22.14,.13,0,10.79,13.54,15.15,21.99,.04,.18,.07,.24,.09,.4l.03-109.79Zm-48.44,62.16c-11.71,0-20.06-10.73-20.06-25.44s8.72-24.81,20.06-24.81,20.24,10.53,20.24,25.01-8.52,25.24-20.24,25.24Z" style="fill: #8fbddf;"/>
      <path d="M355.37,114.13c-2.19-4.35-7.34-7.34-12.52-7.34s-10.53,2.99-12.7,7.34c-1.81,3.39-1.99,5.18-1.99,12.12v39.74c0,6.14-1.2,9.13-4.57,12.49-3.19,2.99-7.16,4.57-11.51,4.57s-8.34-1.58-11.54-4.57c-3.37-3.37-4.55-6.36-4.55-12.49v-39.74c0-7.14-.2-8.72-1.99-12.12-2.19-4.35-7.36-7.34-12.52-7.34s-10.53,2.99-12.72,7.34c-1.78,3.39-1.99,5.18-1.99,12.12v43.31c-.44,16.98,6.44,27.65,11.42,33.81,8.34,10.71,18.74,15.68,34.04,15.68s27.25-5.74,35.57-16.45c4.98-6.16,9.56-17.59,9.53-33.04v-43.31c0-7.14-.2-8.72-1.99-12.12Z" style="fill: #8fbddf;"/>
      <path d="M454.26,175.91c-2.19,0-4.57,.58-6.36,1.38-15.28,7.54-17.07,8.14-24.03,8.14-11.51,0-18.85-5.56-23.23-17.29h54.42c8.92,0,12.7-3.37,12.7-11.51,0-28.4-21.24-50.43-48.44-50.43-28.81,0-50.05,22.83-50.05,53.82s22.35,59.4,53.52,59.4c22.45,0,43.18-19.68,43.18-31.6,0-6.16-5.76-11.91-11.71-11.91Zm-34.36-45.87c5.96,0,11.51,2.77,14.9,7.54,1.79,2.77,2.77,5.15,4.17,10.71h-39.34c4.17-12.7,10.53-18.25,20.26-18.25Z" style="fill: #8fbddf;"/>
      <path d="M559.3,175.91c-2.19,0-4.57,.58-6.36,1.38-15.28,7.54-17.07,8.14-24.03,8.14-11.51,0-18.85-5.56-23.23-17.29h54.42c8.92,0,12.7-3.37,12.7-11.51,0-28.4-21.24-50.43-48.44-50.43-28.81,0-50.05,22.83-50.05,53.82s21.73,59.02,52.9,59.02c22.45,0,43.81-19.3,43.81-31.21,0-6.16-5.76-11.91-11.71-11.91Zm-34.36-45.87c5.96,0,11.51,2.77,14.9,7.54,1.78,2.77,2.77,5.15,4.17,10.71h-39.34c4.17-12.7,10.53-18.25,20.26-18.25Z" style="fill: #8fbddf;"/>
      <path d="M658.59,184.24c-3.17-1.58-4.77-1.78-11.11-1.78h-28.6l39.31-53.62c2.59-3.57,3.97-6.94,3.97-10.13,0-5.96-5.15-10.51-11.91-10.51h-56.2c-6.54,0-7.94,.18-11.11,1.78-3.77,1.99-6.56,6.74-6.56,11.31s2.79,9.53,6.76,11.51c2.97,1.58,4.55,1.78,10.91,1.78h26.22l-40.7,55.6c-2.39,3.19-2.83,5.81-3.39,8.75-1.53,7.96,4.79,20.49,14.92,20.49h56.99c6.54,0,8.67,.78,11.86-.76,5.93-2.87,5.21-18.34,5.21-23.09s-2.79-9.35-6.56-11.33Z" style="fill: #f05d5c;"/>
      <path d="M705.45,112.84c-2.21-4.42-7.43-7.43-12.85-7.43s-10.44,3.01-12.65,7.43c-1.81,3.41-2.01,5.22-2.01,12.25v65.26c0,7.23,.2,8.84,2.01,12.25,2.21,4.42,7.43,7.43,12.65,7.43s10.64-3.01,12.85-7.43c1.81-3.41,2.01-5.22,2.01-12.25V125.09c0-7.23-.2-8.84-2.01-12.25Z" style="fill: #f9d276;"/>
      <path d="M767.64,190.39c0,6.95,1.19,17.25-.6,20.63-2.18,4.37-8.22,8.03-13.39,8.03s-11.2-2.9-13.39-7.27c-1.79-3.38-1.82-14.24-1.82-21.39v-56.2c-7.75,.2-12.11-1.19-14.7-4.17-2.18-2.78-3.38-5.76-3.38-8.94,0-6.75,4.37-11.91,11.32-12.91q1.99-.4,6.75-.4v-15.09c0-6.95,.2-8.74,1.99-11.91,2.19-4.37,7.35-7.35,12.71-7.35s10.33,2.98,12.51,7.15c1.79,3.38,1.99,4.97,1.99,12.11v15.09h5.36c6.35,0,8.14,.2,11.12,1.79,3.77,1.99,6.55,6.75,6.55,11.52s-2.78,9.53-6.55,11.32c-3.18,1.59-4.57,1.79-11.12,1.79h-5.36v56.2Z" style="fill: #8fbddf;"/>
      <path d="M708.91,252.31c0,11.85-6.59,16.69-15.21,16.69s-16.03-4.84-16.03-16.69,14.75-34.56,15.01-34.56c.15,0,16.23,22.71,16.23,34.56Z" style="fill: #8fbddf;"/>
      <path d="M249.49,254.17c0,11.08-6.15,15.6-14.22,15.6s-14.98-4.52-14.98-15.6,13.79-32.3,14.03-32.3c.14,0,15.17,21.22,15.17,32.3Z" style="fill: #f9d276;"/>
      <path d="M220.33,244.47h.02s-.02,.07-.02,.11v-.11Z" style="fill: #231f20;"/>
    </g>
    <text/>
    <g>
      <path d="M534.77,390.88l6.88-15.45c8.57,6.89,22.18,11.78,35.34,11.78,16.68,0,23.71-5.97,23.71-13.92,0-23.1-63.65-7.96-63.65-47.74,0-17.29,13.77-31.98,43.15-31.98,12.85,0,26.32,3.37,35.65,9.49l-6.27,15.45c-9.64-5.66-20.2-8.41-29.53-8.41-16.52,0-23.26,6.43-23.26,14.53,0,22.8,63.5,7.96,63.5,47.28,0,17.14-13.92,31.82-43.3,31.82-16.68,0-33.35-5.2-42.23-12.85Z" style="fill: #8fbddf;"/>
      <path d="M718.67,355.38v46.82h-19.12v-44.37c0-14.54-7.19-21.57-19.43-21.57-13.62,0-22.8,8.26-22.8,24.63v41.31h-19.12v-113.53h19.12v41.31c6.27-6.73,15.91-10.4,27.23-10.4,19.58,0,34.12,11.17,34.12,35.8Z" style="fill: #8fbddf;"/>
      <path d="M737.03,361.35c0-24.48,18.36-41.77,43.45-41.77s43.61,17.29,43.61,41.77-18.21,41.92-43.61,41.92-43.45-17.44-43.45-41.92Zm67.78,0c0-15.61-10.4-25.55-24.33-25.55s-24.17,9.95-24.17,25.55,10.4,25.55,24.17,25.55,24.33-9.95,24.33-25.55Z" style="fill: #8fbddf;"/>
      <path d="M929.2,361.35c0,25.4-17.59,41.92-41.46,41.92-10.4,0-19.58-3.52-26.16-11.02v39.63h-19.12v-111.38h18.21v10.71c6.43-7.8,15.91-11.63,27.08-11.63,23.87,0,41.46,16.52,41.46,41.77Zm-19.43,0c0-15.61-10.4-25.55-24.17-25.55s-24.33,9.95-24.33,25.55,10.56,25.55,24.33,25.55,24.17-9.95,24.17-25.55Z" style="fill: #8fbddf;"/>
    </g>
  </g>
</svg>