<?xml version="1.0" encoding="UTF-8"?>
<svg id="Layer_2" data-name="Layer 2" xmlns="http://www.w3.org/2000/svg" viewBox="0 0 1264.18 342.67">
  <g id="Layer_1-2" data-name="Layer 1">
    <g>
      <path d="M421.5,125.87q-12.7-3.39-16.29-5.96c-2.57-1.61-4.15-4.57-4.15-7.56,0-6.34,6.34-10.91,15.28-10.91,4.17,0,9.13,.98,13.5,2.59q7.54,2.77,10.53,2.77c7.54,0,13.5-6.16,13.5-14.1,0-11.51-15.08-19.66-36.35-19.66-28.4,0-48.84,17.67-48.84,42.3,0,10.13,2.97,18.68,8.52,24.03,5.58,5.56,11.74,8.55,27.22,13.1,14.5,4.37,17.27,5.38,21.04,7.94,3.39,1.99,5.18,5.38,5.18,9.55,0,8.32-6.56,13.9-16.69,13.9-4.57,0-10.33-1.2-14.9-2.99q-14.48-5.56-18.25-5.56c-7.16,0-13.12,6.56-13.12,14.5,0,13.1,19.05,29.23,45.47,29.23,16.87,0,29.9-6.92,38.25-16.06,7.14-7.74,11.8-23.7,11.8-35.21,0-21.46-12.49-33.96-41.7-41.9Z" style="fill: #8fbddf;"/>
      <path d="M568.45,121.5c0-8.34-6.16-14.7-14.48-14.7-5.78,0-9.55,2.59-14.3,10.13-7.74-7.74-14.7-10.71-24.83-10.71-24.43,0-44.09,23.63-44.09,53.01,0,14.88,5.38,29.18,14.3,38.13,7.74,7.94,20.46,13.5,30.79,13.5,8.52,0,15.28-2.59,23.43-8.95l-.03,29.24s0-.07,.02-.11c4.83-9.61,13.69-22.14,13.91-22.14,.13,0,10.79,13.54,15.15,21.99,.04,.18,.07,.24,.09,.4l.03-109.79Zm-48.44,62.16c-11.71,0-20.06-10.73-20.06-25.44s8.72-24.81,20.06-24.81,20.24,10.53,20.24,25.01-8.52,25.24-20.24,25.24Z" style="fill: #8fbddf;"/>
      <path d="M674.3,114.13c-2.19-4.35-7.34-7.34-12.52-7.34s-10.53,2.99-12.7,7.34c-1.81,3.39-1.99,5.18-1.99,12.12v39.74c0,6.14-1.2,9.13-4.57,12.49-3.19,2.99-7.16,4.57-11.51,4.57s-8.34-1.58-11.54-4.57c-3.37-3.37-4.55-6.36-4.55-12.49v-39.74c0-7.14-.2-8.72-1.99-12.12-2.19-4.35-7.36-7.34-12.52-7.34s-10.53,2.99-12.72,7.34c-1.78,3.39-1.99,5.18-1.99,12.12v43.31c-.44,16.98,6.44,27.65,11.42,33.81,8.34,10.71,18.74,15.68,34.04,15.68s27.25-5.74,35.57-16.45c4.98-6.16,9.56-17.59,9.53-33.04v-43.31c0-7.14-.2-8.72-1.99-12.12Z" style="fill: #8fbddf;"/>
      <path d="M773.19,175.91c-2.19,0-4.57,.58-6.36,1.38-15.28,7.54-17.07,8.14-24.03,8.14-11.51,0-18.85-5.56-23.23-17.29h54.42c8.92,0,12.7-3.37,12.7-11.51,0-28.4-21.24-50.43-48.44-50.43-28.81,0-50.05,22.83-50.05,53.82s22.35,59.4,53.52,59.4c22.45,0,43.18-19.68,43.18-31.6,0-6.16-5.76-11.91-11.71-11.91Zm-34.36-45.87c5.96,0,11.51,2.77,14.9,7.54,1.79,2.77,2.77,5.15,4.17,10.71h-39.34c4.17-12.7,10.53-18.25,20.26-18.25Z" style="fill: #8fbddf;"/>
      <path d="M878.23,175.91c-2.19,0-4.57,.58-6.36,1.38-15.28,7.54-17.07,8.14-24.03,8.14-11.51,0-18.85-5.56-23.23-17.29h54.42c8.92,0,12.7-3.37,12.7-11.51,0-28.4-21.24-50.43-48.44-50.43-28.81,0-50.05,22.83-50.05,53.82s21.73,59.02,52.9,59.02c22.45,0,43.81-19.3,43.81-31.21,0-6.16-5.76-11.91-11.71-11.91Zm-34.36-45.87c5.96,0,11.51,2.77,14.9,7.54,1.78,2.77,2.77,5.15,4.17,10.71h-39.34c4.17-12.7,10.53-18.25,20.26-18.25Z" style="fill: #8fbddf;"/>
      <path d="M977.52,184.24c-3.17-1.58-4.77-1.78-11.11-1.78h-28.6l39.31-53.62c2.59-3.57,3.97-6.94,3.97-10.13,0-5.96-5.15-10.51-11.91-10.51h-56.2c-6.54,0-7.94,.18-11.11,1.78-3.77,1.99-6.56,6.74-6.56,11.31s2.79,9.53,6.76,11.51c2.97,1.58,4.55,1.78,10.91,1.78h26.22l-40.7,55.6c-2.39,3.19-2.83,5.81-3.39,8.75-1.53,7.96,4.79,20.49,14.92,20.49h56.99c6.54,0,8.67,.78,11.86-.76,5.93-2.87,5.21-18.34,5.21-23.09s-2.79-9.35-6.56-11.33Z" style="fill: #f05d5c;"/>
      <path d="M1024.38,112.84c-2.21-4.42-7.43-7.43-12.85-7.43s-10.44,3.01-12.65,7.43c-1.81,3.41-2.01,5.22-2.01,12.25v65.26c0,7.23,.2,8.84,2.01,12.25,2.21,4.42,7.43,7.43,12.65,7.43s10.64-3.01,12.85-7.43c1.81-3.41,2.01-5.22,2.01-12.25V125.09c0-7.23-.2-8.84-2.01-12.25Z" style="fill: #f9d276;"/>
      <path d="M1086.57,190.39c0,6.95,1.19,17.25-.6,20.63-2.18,4.37-8.22,8.03-13.39,8.03s-11.2-2.9-13.39-7.27c-1.79-3.38-1.82-14.24-1.82-21.39v-56.2c-7.75,.2-12.11-1.19-14.7-4.17-2.18-2.78-3.38-5.76-3.38-8.94,0-6.75,4.37-11.91,11.32-12.91q1.99-.4,6.75-.4v-15.09c0-6.95,.2-8.74,1.99-11.91,2.19-4.37,7.35-7.35,12.71-7.35s10.33,2.98,12.51,7.15c1.79,3.38,1.99,4.97,1.99,12.11v15.09h5.36c6.35,0,8.14,.2,11.12,1.79,3.77,1.99,6.55,6.75,6.55,11.52s-2.78,9.53-6.55,11.32c-3.18,1.59-4.57,1.79-11.12,1.79h-5.36v56.2Z" style="fill: #8fbddf;"/>
      <path d="M1027.84,252.31c0,11.85-6.59,16.69-15.21,16.69s-16.03-4.84-16.03-16.69,14.75-34.56,15.01-34.56c.15,0,16.23,22.71,16.23,34.56Z" style="fill: #8fbddf;"/>
      <path d="M568.42,254.17c0,11.08-6.15,15.6-14.22,15.6s-14.98-4.52-14.98-15.6,13.79-32.3,14.03-32.3c.14,0,15.17,21.22,15.17,32.3Z" style="fill: #f9d276;"/>
      <path d="M539.26,244.47h.02s-.02,.07-.02,.11v-.11Z" style="fill: #231f20;"/>
    </g>
    <text/>
    <g>
      <path d="M146.06,89.6l-31.09,93.8h-18.49l-23.18-69.41-23.58,69.41H31.09L0,89.6H18.09l23.32,71.29,24.25-71.29h16.08l23.72,71.69,23.99-71.69h16.62Z" style="fill: #8fbddf;"/>
      <path d="M231.15,142.4v41h-16.75v-38.86c0-12.73-6.3-18.89-17.02-18.89-11.93,0-19.97,7.24-19.97,21.57v36.18h-16.75V83.97h16.75v36.18c5.49-5.9,13.94-9.11,23.85-9.11,17.15,0,29.88,9.78,29.88,31.36Z" style="fill: #8fbddf;"/>
      <path d="M318.12,111.84l-33.5,77.32c-6.57,16.21-15.68,21.17-27.6,21.17-7.1,0-14.61-2.41-19.16-6.57l6.7-12.33c3.22,3.08,7.77,4.96,12.33,4.96,5.9,0,9.38-2.81,12.6-9.92l1.21-2.81-31.22-71.83h17.42l22.51,52.93,22.65-52.93h16.08Z" style="fill: #8fbddf;"/>
    </g>
    <path d="M1238.77,126.05c0-9.97-8.54-16.73-22.25-16.73s-22.78,4.98-29.01,13.71l-17.27-11.21c9.97-13.53,25.99-21.72,48.24-21.72,26.17,0,43.61,11.93,43.61,32.4,0,29.01-30.44,31.68-30.44,52.69h-22.61c0-26.34,29.72-31.33,29.72-49.13Zm-32.57,77.78c0-7.65,5.87-13.71,14.24-13.71s14.06,6.05,14.06,13.71-5.87,13.88-14.06,13.88-14.24-6.23-14.24-13.88Z" style="fill: #8fbddf;"/>
  </g>
</svg>